<svg xmlns="http://www.w3.org/2000/svg" version="1.1" xmlns:xlink="http://www.w3.org/1999/xlink" width="1000" height="1000"><g clip-path="url(#SvgjsClipPath2240)"><rect width="1000" height="1000" fill="#ffffff"></rect><g transform="matrix(2,0,0,2,0,0)"><svg xmlns="http://www.w3.org/2000/svg" version="1.1" xmlns:xlink="http://www.w3.org/1999/xlink" width="500" height="500"><svg xmlns="http://www.w3.org/2000/svg" xmlns:xlink="http://www.w3.org/1999/xlink" width="500" zoomAndPan="magnify" viewBox="0 0 375 374.999991" height="500" preserveAspectRatio="xMidYMid meet" version="1.0"><defs><clipPath id="3474b4c782"><path d="M 101 72.054688 L 294 72.054688 L 294 303.054688 L 101 303.054688 Z M 101 72.054688 " clip-rule="nonzero"></path></clipPath><clipPath id="SvgjsClipPath2240"><rect width="1000" height="1000" x="0" y="0" rx="500" ry="500"></rect></clipPath></defs><g clip-path="url(#3474b4c782)"><path fill="#142d55" d="M 273.511719 147.867188 L 179.742188 79.105469 C 177.921875 77.773438 176.015625 76.570312 174.027344 75.5 C 172.039062 74.425781 169.988281 73.496094 167.871094 72.707031 C 165.753906 71.917969 163.59375 71.277344 161.390625 70.789062 C 159.183594 70.296875 156.957031 69.957031 154.707031 69.773438 C 152.453125 69.589844 150.203125 69.5625 147.945312 69.6875 C 145.691406 69.816406 143.457031 70.097656 141.238281 70.53125 C 139.023438 70.964844 136.847656 71.550781 134.710938 72.285156 C 132.574219 73.019531 130.5 73.898438 128.484375 74.917969 C 126.472656 75.9375 124.535156 77.09375 122.679688 78.382812 C 120.824219 79.667969 119.066406 81.078125 117.40625 82.605469 C 115.742188 84.136719 114.195312 85.773438 112.757812 87.515625 C 111.324219 89.261719 110.011719 91.09375 108.832031 93.019531 C 107.648438 94.941406 106.601562 96.9375 105.695312 99.007812 C 104.785156 101.074219 104.023438 103.195312 103.410156 105.367188 C 102.792969 107.542969 102.328125 109.746094 102.015625 111.984375 C 101.707031 114.21875 101.550781 116.46875 101.546875 118.726562 L 101.546875 256.3125 C 101.542969 258.574219 101.695312 260.824219 102.003906 263.0625 C 102.308594 265.300781 102.769531 267.511719 103.382812 269.6875 C 103.996094 271.863281 104.753906 273.988281 105.660156 276.058594 C 106.566406 278.128906 107.609375 280.128906 108.789062 282.054688 C 109.972656 283.984375 111.28125 285.820312 112.71875 287.566406 C 114.152344 289.3125 115.703125 290.953125 117.363281 292.484375 C 119.027344 294.015625 120.785156 295.429688 122.644531 296.71875 C 124.5 298.007812 126.4375 299.164062 128.453125 300.183594 C 130.46875 301.207031 132.546875 302.085938 134.6875 302.820312 C 136.824219 303.554688 139.003906 304.136719 141.21875 304.570312 C 143.4375 305.007812 145.675781 305.285156 147.933594 305.410156 C 150.191406 305.535156 152.445312 305.503906 154.699219 305.316406 C 156.953125 305.128906 159.183594 304.789062 161.390625 304.292969 C 163.59375 303.800781 165.757812 303.15625 167.875 302.363281 C 169.988281 301.570312 172.042969 300.632812 174.03125 299.554688 C 176.019531 298.480469 177.921875 297.269531 179.742188 295.929688 L 273.511719 227.171875 C 274.285156 226.605469 275.042969 226.015625 275.78125 225.402344 C 276.523438 224.789062 277.242188 224.15625 277.945312 223.5 C 278.648438 222.84375 279.332031 222.171875 279.996094 221.476562 C 280.65625 220.78125 281.300781 220.066406 281.921875 219.332031 C 282.542969 218.601562 283.140625 217.851562 283.71875 217.082031 C 284.296875 216.316406 284.851562 215.53125 285.382812 214.730469 C 285.914062 213.929688 286.421875 213.117188 286.902344 212.285156 C 287.386719 211.457031 287.847656 210.613281 288.28125 209.753906 C 288.714844 208.898438 289.121094 208.03125 289.507812 207.148438 C 289.890625 206.269531 290.246094 205.375 290.578125 204.476562 C 290.90625 203.574219 291.210938 202.664062 291.488281 201.742188 C 291.765625 200.824219 292.015625 199.894531 292.238281 198.960938 C 292.464844 198.027344 292.660156 197.085938 292.828125 196.140625 C 292.996094 195.195312 293.136719 194.246094 293.246094 193.292969 C 293.359375 192.339844 293.445312 191.382812 293.5 190.421875 C 293.554688 189.464844 293.585938 188.503906 293.585938 187.542969 C 293.585938 186.582031 293.554688 185.625 293.5 184.664062 C 293.445312 183.707031 293.359375 182.75 293.246094 181.796875 C 293.136719 180.839844 292.996094 179.890625 292.828125 178.945312 C 292.660156 178 292.464844 177.058594 292.238281 176.125 C 292.015625 175.191406 291.765625 174.265625 291.488281 173.34375 C 291.210938 172.425781 290.90625 171.515625 290.578125 170.613281 C 290.246094 169.710938 289.890625 168.820312 289.507812 167.9375 C 289.121094 167.058594 288.714844 166.1875 288.28125 165.332031 C 287.847656 164.476562 287.386719 163.632812 286.902344 162.800781 C 286.421875 161.972656 285.914062 161.15625 285.382812 160.355469 C 284.851562 159.554688 284.296875 158.773438 283.71875 158.003906 C 283.140625 157.238281 282.542969 156.488281 281.921875 155.753906 C 281.300781 155.023438 280.65625 154.308594 279.996094 153.613281 C 279.332031 152.917969 278.648438 152.242188 277.945312 151.585938 C 277.242188 150.933594 276.523438 150.300781 275.78125 149.6875 C 275.042969 149.074219 274.285156 148.484375 273.511719 147.914062 Z M 273.511719 147.867188 " fill-opacity="1" fill-rule="nonzero"></path></g></svg></svg></g></g></svg>